<svg xmlns="http://www.w3.org/2000/svg" width="375" viewBox="0 0 375 375" height="375" version="1.0"><defs><clipPath id="a"><path d="M 99.601562 76.089844 L 275.101562 76.089844 L 275.101562 208.089844 L 99.601562 208.089844 Z M 99.601562 76.089844"/></clipPath></defs><path fill="#FFF" d="M-37.5 -37.5H412.5V412.5H-37.5z"/><path fill="#FFF" d="M-37.5 -37.5H412.5V412.5H-37.5z"/><path d="M-37.5 -37.5H412.5V412.5H-37.5z"/><path fill="#64FFDA" d="M 244.648438 104.480469 C 240.089844 104.480469 236.398438 108.175781 236.398438 112.730469 C 236.398438 117.285156 240.089844 120.980469 244.648438 120.980469 C 249.203125 120.980469 252.898438 117.285156 252.898438 112.730469 C 252.898438 108.175781 249.203125 104.480469 244.648438 104.480469"/><path fill="#64FFDA" d="M 271.710938 234.695312 C 269.640625 234.695312 267.960938 236.375 267.960938 238.445312 C 267.960938 240.519531 269.640625 242.195312 271.710938 242.195312 C 273.78125 242.195312 275.460938 240.519531 275.460938 238.445312 C 275.460938 236.375 273.78125 234.695312 271.710938 234.695312"/><g fill="#FFF"><g><g><path d="M 9.0625 -8.320312 L 9.0625 -6.328125 L 15.753906 -6.328125 C 15.152344 -3.597656 12.730469 -1.773438 9.664062 -1.773438 C 5.875 -1.773438 3.285156 -4.484375 3.285156 -8.367188 C 3.285156 -12.230469 5.945312 -14.960938 9.664062 -14.960938 C 12.492188 -14.960938 14.890625 -13.355469 15.609375 -10.910156 L 17.792969 -10.910156 C 17.046875 -14.507812 13.644531 -17.023438 9.613281 -17.023438 C 4.722656 -17.023438 1.152344 -13.355469 1.152344 -8.367188 C 1.152344 -3.378906 4.722656 0.289062 9.664062 0.289062 C 14.507812 0.289062 17.960938 -3.261719 18.054688 -8.320312 Z M 9.0625 -8.320312" transform="translate(104.127 244.418)"/></g></g></g><g fill="#FFF"><g><g><path d="M 14.003906 0 L 16.28125 0 L 9.230469 -16.785156 L 7.265625 -16.785156 L 0.40625 0 L 2.636719 0 L 4.269531 -4.003906 L 12.347656 -4.003906 Z M 8.273438 -13.882812 L 11.558594 -5.945312 L 5.058594 -5.945312 Z M 8.273438 -13.882812" transform="translate(129.255 244.418)"/></g></g></g><g fill="#FFF"><g><g><path d="M 4.386719 -1.964844 L 4.386719 -16.785156 L 2.277344 -16.785156 L 2.277344 0 L 11.75 0 L 11.75 -1.964844 Z M 4.386719 -1.964844" transform="translate(151.962 244.418)"/></g></g></g><g fill="#FFF"><g><g><path d="M 4.386719 -1.964844 L 4.386719 -16.785156 L 2.277344 -16.785156 L 2.277344 0 L 11.75 0 L 11.75 -1.964844 Z M 4.386719 -1.964844" transform="translate(170.233 244.418)"/></g></g></g><g fill="#FFF"><g><g><path d="M 4.386719 -2.015625 L 4.386719 -7.648438 L 11.148438 -7.648438 L 11.148438 -9.589844 L 4.386719 -9.589844 L 4.386719 -14.769531 L 11.773438 -14.769531 L 11.773438 -16.785156 L 2.277344 -16.785156 L 2.277344 0 L 12.035156 0 L 12.035156 -2.015625 Z M 4.386719 -2.015625" transform="translate(188.504 244.418)"/></g></g></g><g fill="#FFF"><g><g><path d="M 12.0625 0 L 14.433594 0 L 10.40625 -6.808594 C 12.613281 -7.433594 14.121094 -9.277344 14.121094 -11.652344 C 14.121094 -14.625 11.796875 -16.785156 8.65625 -16.785156 L 2.277344 -16.785156 L 2.277344 0 L 4.386719 0 L 4.386719 -6.546875 L 8.199219 -6.546875 Z M 4.386719 -14.769531 L 8.535156 -14.769531 C 10.597656 -14.769531 11.964844 -13.453125 11.964844 -11.652344 C 11.964844 -9.855469 10.597656 -8.558594 8.535156 -8.558594 L 4.386719 -8.558594 Z M 4.386719 -14.769531" transform="translate(207.758 244.418)"/></g></g></g><g fill="#FFF"><g><g><path d="M 2.277344 0 L 4.386719 0 L 4.386719 -16.785156 L 2.277344 -16.785156 Z M 2.277344 0" transform="translate(229.193 244.418)"/></g></g></g><g fill="#FFF"><g><g><path d="M 14.003906 0 L 16.28125 0 L 9.230469 -16.785156 L 7.265625 -16.785156 L 0.40625 0 L 2.636719 0 L 4.269531 -4.003906 L 12.347656 -4.003906 Z M 8.273438 -13.882812 L 11.558594 -5.945312 L 5.058594 -5.945312 Z M 8.273438 -13.882812" transform="translate(241.878 244.418)"/></g></g></g><g clip-path="url(#a)"><path fill="#FFF" d="M 100.972656 190.175781 C 101.792969 190.175781 102.339844 189.628906 102.339844 188.804688 L 102.339844 109.804688 C 102.339844 101.835938 108.78125 95.515625 116.589844 95.515625 L 147.414062 95.515625 C 149.195312 95.515625 150.839844 94.417969 151.660156 92.90625 L 157.003906 81.914062 C 157.828125 80.128906 159.746094 79.027344 161.664062 79.027344 L 212.765625 79.027344 C 214.820312 79.027344 216.738281 80.265625 217.558594 82.050781 L 222.902344 92.90625 C 223.726562 94.554688 225.367188 95.515625 227.148438 95.515625 L 257.976562 95.515625 C 265.785156 95.515625 272.222656 101.972656 272.222656 109.804688 L 272.222656 205.289062 L 188.378906 205.289062 C 163.855469 205.289062 143.304688 185.644531 142.757812 161.464844 C 142.484375 149.234375 147.003906 137.558594 155.496094 128.765625 C 163.992188 120.109375 175.363281 115.300781 187.417969 115.300781 C 212.078125 115.300781 232.082031 135.496094 232.082031 160.226562 C 232.082031 161.050781 232.628906 161.601562 233.453125 161.601562 C 234.273438 161.601562 234.820312 161.050781 234.820312 160.226562 C 234.820312 133.847656 213.585938 112.550781 187.417969 112.550781 C 174.542969 112.550781 162.484375 117.636719 153.578125 126.839844 C 144.539062 136.183594 139.742188 148.410156 140.015625 161.464844 C 140.566406 187.15625 162.210938 208.039062 188.378906 208.039062 L 273.59375 208.039062 C 274.414062 208.039062 275.101562 207.351562 275.101562 206.527344 L 275.101562 109.804688 C 275.101562 100.324219 267.429688 92.769531 258.113281 92.769531 L 227.148438 92.769531 C 226.464844 92.769531 225.78125 92.355469 225.367188 91.667969 L 220.164062 80.679688 C 218.792969 77.929688 215.914062 76.144531 212.902344 76.144531 L 161.664062 76.144531 C 158.648438 76.144531 155.773438 77.929688 154.539062 80.679688 L 149.195312 91.667969 C 148.921875 92.355469 148.238281 92.769531 147.414062 92.769531 L 137.960938 92.769531 L 137.960938 91.257812 C 137.960938 88.921875 136.179688 87.136719 133.851562 87.136719 L 122.890625 87.136719 C 120.5625 87.136719 118.78125 88.921875 118.78125 91.257812 L 118.78125 92.769531 L 116.589844 92.769531 C 107.273438 92.769531 99.601562 100.324219 99.601562 109.804688 L 99.601562 188.804688 C 99.601562 189.628906 100.148438 190.175781 100.972656 190.175781 Z M 100.972656 190.175781"/></g><path fill="#FFF" d="M 211.121094 85.488281 C 211.941406 85.488281 212.492188 84.9375 212.492188 84.113281 C 212.492188 83.289062 211.941406 82.738281 211.121094 82.738281 L 163.308594 82.738281 C 162.484375 82.738281 161.9375 83.289062 161.9375 84.113281 C 161.9375 84.9375 162.484375 85.488281 163.308594 85.488281 Z M 211.121094 85.488281"/><path fill="#FFF" d="M 119.054688 108.15625 C 116.726562 108.15625 114.945312 109.941406 114.945312 112.277344 L 114.945312 119.972656 C 114.945312 122.308594 116.726562 124.09375 119.054688 124.09375 L 134.949219 124.09375 C 137.277344 124.09375 139.058594 122.308594 139.058594 119.972656 L 139.058594 112.277344 C 139.058594 109.941406 137.277344 108.15625 134.949219 108.15625 Z M 119.054688 108.15625"/><path fill="#FFF" d="M 187.28125 122.445312 C 166.59375 122.445312 149.742188 139.34375 149.742188 160.226562 C 149.742188 181.109375 166.59375 198.007812 187.28125 198.007812 C 207.96875 198.007812 224.820312 181.109375 224.820312 160.226562 C 224.820312 139.34375 207.96875 122.445312 187.28125 122.445312 Z M 165.636719 160.363281 C 165.636719 161.1875 165.089844 161.738281 164.265625 161.738281 C 163.445312 161.738281 162.894531 161.1875 162.894531 160.363281 C 162.894531 146.761719 173.855469 135.769531 187.28125 135.769531 C 188.105469 135.769531 188.652344 136.320312 188.652344 137.144531 C 188.652344 137.96875 188.105469 138.519531 187.28125 138.519531 C 175.363281 138.519531 165.636719 148.273438 165.636719 160.363281 Z M 187.28125 184.820312 C 186.460938 184.820312 185.914062 184.269531 185.914062 183.445312 C 185.914062 182.621094 186.460938 182.070312 187.28125 182.070312 C 199.203125 182.070312 208.929688 172.316406 208.929688 160.226562 C 208.929688 159.402344 209.476562 158.851562 210.296875 158.851562 C 211.121094 158.851562 211.667969 159.402344 211.667969 160.226562 C 211.667969 173.828125 200.707031 184.820312 187.28125 184.820312 Z M 187.28125 184.820312"/></svg>