<svg xmlns="http://www.w3.org/2000/svg" width="375" viewBox="0 0 375 375" height="375" version="1.0"><path fill="#FFF" d="M-37.5 -37.5H412.5V412.5H-37.5z"/><path fill="#FFF" d="M-37.5 -37.5H412.5V412.5H-37.5z"/><path d="M-37.5 -37.5H412.5V412.5H-37.5z"/><path fill="#FFEF72" d="M 343.773438 83.03125 C 336.523438 83.03125 330.648438 88.910156 330.648438 96.15625 C 330.648438 103.40625 336.523438 109.28125 343.773438 109.28125 C 351.019531 109.28125 356.898438 103.40625 356.898438 96.15625 C 356.898438 88.910156 351.019531 83.03125 343.773438 83.03125"/><path fill="#FFF" d="M 114.035156 272.769531 C 112.632812 271.367188 111.273438 269.925781 109.953125 268.441406 C 108.636719 266.960938 107.363281 265.445312 106.128906 263.890625 C 104.898438 262.335938 103.710938 260.75 102.570312 259.125 C 101.429688 257.503906 100.335938 255.851562 99.289062 254.167969 C 98.246094 252.480469 97.246094 250.769531 96.300781 249.027344 C 95.351562 247.285156 94.453125 245.515625 93.605469 243.722656 C 92.757812 241.929688 91.964844 240.113281 91.222656 238.273438 C 90.476562 236.433594 89.789062 234.578125 89.152344 232.699219 C 88.515625 230.820312 87.933594 228.921875 87.402344 227.011719 C 86.875 225.097656 86.402344 223.175781 85.984375 221.234375 C 85.566406 219.296875 85.203125 217.347656 84.898438 215.386719 C 84.589844 213.425781 84.339844 211.460938 84.144531 209.484375 C 83.953125 207.511719 83.8125 205.53125 83.734375 203.550781 C 83.652344 201.566406 83.628906 199.585938 83.660156 197.601562 C 83.691406 195.617188 83.78125 193.636719 83.929688 191.65625 C 84.074219 189.679688 84.277344 187.707031 84.535156 185.738281 C 84.792969 183.773438 85.109375 181.816406 85.480469 179.867188 C 85.851562 177.917969 86.277344 175.980469 86.757812 174.058594 C 87.238281 172.132812 87.777344 170.222656 88.367188 168.328125 C 88.957031 166.4375 89.601562 164.5625 90.300781 162.703125 C 91 160.847656 91.75 159.011719 92.550781 157.199219 C 93.355469 155.386719 94.210938 153.597656 95.113281 151.832031 C 96.019531 150.066406 96.976562 148.328125 97.980469 146.621094 C 98.984375 144.910156 100.039062 143.230469 101.136719 141.582031 C 102.238281 139.933594 103.386719 138.316406 104.582031 136.730469 C 105.773438 135.148438 107.011719 133.597656 108.292969 132.085938 C 109.574219 130.574219 110.898438 129.097656 112.265625 127.664062 C 113.632812 126.226562 115.039062 124.828125 116.484375 123.472656 C 117.929688 122.117188 119.414062 120.804688 120.9375 119.53125 C 122.457031 118.261719 124.015625 117.035156 125.605469 115.855469 C 127.195312 114.671875 128.820312 113.539062 130.476562 112.449219 C 132.132812 111.359375 133.820312 110.320312 135.535156 109.328125 C 137.253906 108.335938 138.996094 107.394531 140.765625 106.503906 C 142.535156 105.609375 144.328125 104.769531 146.148438 103.980469 C 147.964844 103.191406 149.804688 102.457031 151.664062 101.773438 C 153.523438 101.089844 155.402344 100.460938 157.296875 99.882812 C 159.195312 99.308594 161.105469 98.785156 163.03125 98.320312 C 164.957031 97.855469 166.894531 97.445312 168.84375 97.089844 C 170.792969 96.734375 172.753906 96.433594 174.71875 96.191406 C 176.683594 95.949219 178.65625 95.761719 180.632812 95.632812 C 182.613281 95.503906 184.589844 95.429688 186.570312 95.414062 C 188.554688 95.398438 190.535156 95.4375 192.511719 95.535156 C 194.492188 95.632812 196.464844 95.789062 198.4375 96 C 200.40625 96.210938 202.371094 96.476562 204.324219 96.800781 C 206.28125 97.121094 208.222656 97.503906 210.15625 97.9375 C 212.089844 98.371094 214.007812 98.859375 215.914062 99.40625 C 217.820312 99.949219 219.707031 100.550781 221.578125 101.203125 C 223.449219 101.855469 225.300781 102.5625 227.132812 103.320312 C 228.960938 104.082031 230.769531 104.890625 232.554688 105.753906 C 234.335938 106.617188 236.09375 107.53125 237.828125 108.496094 C 239.558594 109.457031 241.261719 110.472656 242.9375 111.53125 C 244.609375 112.59375 246.253906 113.703125 247.863281 114.859375 C 249.472656 116.015625 251.050781 117.214844 252.589844 118.460938 C 254.132812 119.707031 255.636719 120.996094 257.105469 122.328125 C 258.574219 123.660156 260.003906 125.035156 261.394531 126.449219 C 262.78125 127.863281 264.128906 129.316406 265.4375 130.808594 C 266.742188 132.296875 268.007812 133.824219 269.226562 135.390625 C 270.445312 136.953125 271.617188 138.550781 272.746094 140.183594 C 273.871094 141.8125 274.953125 143.476562 275.984375 145.167969 C 277.015625 146.863281 278 148.585938 278.933594 150.335938 C 279.867188 152.082031 280.75 153.859375 281.585938 155.660156 C 282.417969 157.460938 283.195312 159.28125 283.925781 161.125 C 284.652344 162.972656 285.328125 164.835938 285.949219 166.71875 C 286.570312 168.605469 287.136719 170.503906 287.652344 172.421875 C 288.164062 174.335938 288.621094 176.265625 289.023438 178.207031 C 289.425781 180.152344 289.773438 182.101562 290.0625 184.066406 C 290.355469 186.027344 290.589844 187.996094 290.765625 189.972656 C 290.945312 191.949219 291.066406 193.929688 291.128906 195.910156 C 291.195312 197.894531 291.203125 199.878906 291.15625 201.859375 C 291.105469 203.84375 291 205.824219 290.839844 207.800781 C 290.675781 209.777344 290.457031 211.75 290.183594 213.714844 C 289.910156 215.679688 289.578125 217.632812 289.191406 219.578125 C 288.804688 221.523438 288.363281 223.457031 287.867188 225.378906 C 287.367188 227.300781 286.816406 229.203125 286.210938 231.09375 C 285.605469 232.980469 284.945312 234.851562 284.230469 236.703125 C 283.519531 238.554688 282.753906 240.382812 281.9375 242.1875 C 281.117188 243.996094 280.25 245.777344 279.328125 247.535156 C 278.410156 249.292969 277.441406 251.023438 276.421875 252.722656 C 275.402344 254.425781 274.335938 256.097656 273.222656 257.738281 C 272.109375 259.375 270.949219 260.984375 269.742188 262.558594 C 268.535156 264.132812 267.285156 265.671875 265.992188 267.171875 C 264.695312 268.675781 263.359375 270.136719 261.984375 271.5625 C 260.605469 272.988281 259.1875 274.375 257.730469 275.71875 C 256.273438 277.0625 254.777344 278.363281 253.246094 279.621094 C 251.714844 280.882812 250.148438 282.09375 248.546875 283.261719 C 246.945312 284.433594 245.3125 285.554688 243.648438 286.628906 C 241.984375 287.703125 240.289062 288.730469 238.5625 289.707031 C 236.839844 290.6875 235.089844 291.613281 233.3125 292.492188 C 231.535156 293.367188 229.734375 294.195312 227.910156 294.96875 C 226.085938 295.742188 224.242188 296.464844 222.375 297.132812 C 220.511719 297.800781 218.625 298.414062 216.726562 298.976562 C 214.824219 299.535156 212.910156 300.042969 210.980469 300.492188 C 209.050781 300.941406 207.109375 301.335938 205.15625 301.675781 C 203.207031 302.015625 201.246094 302.296875 199.277344 302.523438 C 197.308594 302.75 195.335938 302.921875 193.355469 303.035156 C 191.378906 303.148438 189.398438 303.207031 187.417969 303.207031 C 184.019531 303.210938 180.625 303.046875 177.242188 302.714844 C 173.859375 302.386719 170.5 301.890625 167.164062 301.226562 C 163.832031 300.566406 160.535156 299.742188 157.285156 298.753906 C 154.03125 297.765625 150.832031 296.621094 147.691406 295.320312 C 144.550781 294.015625 141.480469 292.5625 138.484375 290.957031 C 135.488281 289.351562 132.574219 287.601562 129.75 285.707031 C 126.925781 283.816406 124.199219 281.789062 121.574219 279.625 C 118.949219 277.464844 116.433594 275.179688 114.035156 272.769531 Z M 127.871094 258.914062 C 129.007812 260.050781 130.175781 261.15625 131.375 262.226562 C 132.578125 263.296875 133.804688 264.335938 135.066406 265.335938 C 136.324219 266.335938 137.613281 267.300781 138.925781 268.226562 C 140.242188 269.15625 141.582031 270.042969 142.949219 270.894531 C 144.3125 271.742188 145.703125 272.554688 147.113281 273.324219 C 148.527344 274.09375 149.957031 274.824219 151.414062 275.511719 C 152.867188 276.199219 154.339844 276.847656 155.828125 277.453125 C 157.320312 278.054688 158.824219 278.617188 160.347656 279.132812 C 161.871094 279.652344 163.40625 280.125 164.957031 280.554688 C 166.507812 280.984375 168.066406 281.367188 169.640625 281.707031 C 171.210938 282.046875 172.792969 282.34375 174.378906 282.589844 C 175.96875 282.839844 177.5625 283.042969 179.164062 283.203125 C 180.765625 283.359375 182.367188 283.472656 183.972656 283.539062 C 185.582031 283.601562 187.1875 283.621094 188.796875 283.597656 C 190.402344 283.570312 192.011719 283.496094 193.613281 283.378906 C 195.21875 283.261719 196.816406 283.097656 198.410156 282.886719 C 200.003906 282.675781 201.59375 282.421875 203.171875 282.117188 C 204.75 281.816406 206.320312 281.472656 207.878906 281.082031 C 209.441406 280.6875 210.988281 280.253906 212.523438 279.773438 C 214.058594 279.292969 215.578125 278.769531 217.082031 278.203125 C 218.585938 277.636719 220.074219 277.027344 221.546875 276.375 C 223.015625 275.722656 224.464844 275.027344 225.894531 274.292969 C 227.328125 273.554688 228.734375 272.78125 230.121094 271.964844 C 231.507812 271.148438 232.867188 270.292969 234.207031 269.398438 C 235.542969 268.503906 236.851562 267.570312 238.136719 266.601562 C 239.421875 265.632812 240.675781 264.625 241.902344 263.582031 C 243.128906 262.542969 244.324219 261.464844 245.488281 260.355469 C 246.652344 259.246094 247.785156 258.101562 248.882812 256.929688 C 249.980469 255.753906 251.046875 254.546875 252.078125 253.3125 C 253.109375 252.074219 254.101562 250.808594 255.058594 249.515625 C 256.015625 248.222656 256.9375 246.90625 257.820312 245.558594 C 258.703125 244.210938 259.546875 242.84375 260.347656 241.449219 C 261.152344 240.054688 261.917969 238.636719 262.640625 237.199219 C 263.363281 235.761719 264.042969 234.304688 264.683594 232.828125 C 265.324219 231.347656 265.921875 229.855469 266.472656 228.34375 C 267.027344 226.832031 267.539062 225.304688 268.003906 223.765625 C 268.472656 222.222656 268.894531 220.671875 269.273438 219.105469 C 269.652344 217.542969 269.984375 215.96875 270.269531 214.382812 C 270.558594 212.800781 270.800781 211.207031 271 209.609375 C 271.195312 208.011719 271.347656 206.410156 271.453125 204.804688 C 271.554688 203.195312 271.617188 201.589844 271.628906 199.980469 C 271.640625 198.367188 271.609375 196.761719 271.53125 195.152344 C 271.449219 193.542969 271.324219 191.9375 271.15625 190.339844 C 270.984375 188.738281 270.769531 187.144531 270.507812 185.554688 C 270.246094 183.964844 269.9375 182.386719 269.585938 180.816406 C 269.234375 179.246094 268.835938 177.683594 268.394531 176.136719 C 267.953125 174.589844 267.46875 173.054688 266.9375 171.535156 C 266.410156 170.015625 265.835938 168.511719 265.21875 167.023438 C 264.605469 165.535156 263.949219 164.066406 263.25 162.617188 C 262.550781 161.167969 261.808594 159.738281 261.027344 158.332031 C 260.246094 156.921875 259.425781 155.539062 258.566406 154.179688 C 257.703125 152.820312 256.804688 151.484375 255.871094 150.175781 C 254.933594 148.867188 253.960938 147.585938 252.949219 146.335938 C 251.941406 145.082031 250.894531 143.859375 249.816406 142.664062 C 248.734375 141.472656 247.621094 140.3125 246.476562 139.183594 C 245.328125 138.054688 244.152344 136.957031 242.941406 135.894531 C 241.734375 134.835938 240.496094 133.808594 239.226562 132.816406 C 237.960938 131.828125 236.664062 130.875 235.34375 129.957031 C 234.019531 129.042969 232.671875 128.164062 231.300781 127.324219 C 229.929688 126.488281 228.53125 125.6875 227.113281 124.929688 C 225.695312 124.167969 224.257812 123.453125 222.796875 122.777344 C 221.339844 122.097656 219.863281 121.464844 218.367188 120.875 C 216.871094 120.28125 215.359375 119.734375 213.832031 119.226562 C 212.304688 118.722656 210.765625 118.261719 209.210938 117.847656 C 207.660156 117.429688 206.09375 117.058594 204.519531 116.730469 C 202.945312 116.402344 201.363281 116.121094 199.773438 115.886719 C 198.183594 115.648438 196.585938 115.457031 194.984375 115.3125 C 193.382812 115.167969 191.777344 115.070312 190.171875 115.019531 C 188.566406 114.964844 186.957031 114.957031 185.351562 115 C 183.742188 115.039062 182.136719 115.125 180.535156 115.253906 C 178.933594 115.386719 177.335938 115.5625 175.742188 115.785156 C 174.148438 116.011719 172.566406 116.277344 170.988281 116.59375 C 169.410156 116.90625 167.84375 117.265625 166.285156 117.671875 C 164.730469 118.074219 163.1875 118.523438 161.65625 119.015625 C 160.125 119.507812 158.609375 120.042969 157.109375 120.621094 C 155.609375 121.203125 154.125 121.824219 152.660156 122.488281 C 151.195312 123.152344 149.75 123.859375 148.328125 124.605469 C 146.902344 125.355469 145.5 126.140625 144.121094 126.96875 C 142.742188 127.796875 141.386719 128.664062 140.058594 129.570312 C 138.730469 130.472656 137.425781 131.417969 136.152344 132.398438 C 134.875 133.378906 133.628906 134.394531 132.410156 135.445312 C 131.191406 136.496094 130.007812 137.582031 128.851562 138.703125 C 127.695312 139.820312 126.574219 140.972656 125.484375 142.15625 C 124.394531 143.339844 123.339844 144.554688 122.320312 145.800781 C 121.296875 147.046875 120.316406 148.316406 119.367188 149.617188 C 118.421875 150.921875 117.511719 152.246094 116.640625 153.601562 C 115.769531 154.953125 114.9375 156.332031 114.144531 157.730469 C 113.351562 159.132812 112.597656 160.554688 111.886719 162 C 111.175781 163.441406 110.507812 164.90625 109.878906 166.386719 C 109.253906 167.871094 108.667969 169.371094 108.125 170.886719 C 107.585938 172.402344 107.085938 173.933594 106.632812 175.476562 C 106.179688 177.019531 105.769531 178.578125 105.402344 180.144531 C 105.039062 181.714844 104.71875 183.289062 104.441406 184.875 C 104.167969 186.464844 103.9375 188.054688 103.753906 189.65625 C 103.570312 191.253906 103.433594 192.859375 103.339844 194.464844 C 103.25 196.074219 103.203125 197.683594 103.203125 199.292969 C 103.199219 202.054688 103.332031 204.808594 103.601562 207.558594 C 103.867188 210.308594 104.269531 213.035156 104.804688 215.746094 C 105.34375 218.453125 106.011719 221.128906 106.8125 223.773438 C 107.609375 226.417969 108.539062 229.015625 109.59375 231.566406 C 110.648438 234.117188 111.828125 236.613281 113.128906 239.046875 C 114.429688 241.484375 115.847656 243.847656 117.382812 246.144531 C 118.917969 248.4375 120.558594 250.652344 122.3125 252.785156 C 124.0625 254.921875 125.917969 256.960938 127.871094 258.914062 Z M 107.703125 199.292969 C 107.703125 200.816406 107.746094 202.339844 107.832031 203.859375 C 107.917969 205.382812 108.050781 206.898438 108.222656 208.414062 C 108.398438 209.925781 108.613281 211.433594 108.875 212.9375 C 109.136719 214.4375 109.4375 215.929688 109.785156 217.414062 C 110.128906 218.898438 110.519531 220.371094 110.949219 221.832031 C 111.378906 223.292969 111.847656 224.742188 112.363281 226.179688 C 112.875 227.613281 113.425781 229.03125 114.023438 230.433594 C 114.617188 231.835938 115.25 233.222656 115.921875 234.589844 C 116.59375 235.957031 117.308594 237.300781 118.058594 238.628906 C 118.808594 239.953125 119.59375 241.257812 120.421875 242.539062 C 121.246094 243.820312 122.105469 245.074219 123.003906 246.304688 C 123.898438 247.539062 124.828125 248.742188 125.796875 249.921875 C 126.761719 251.097656 127.757812 252.246094 128.789062 253.367188 C 129.824219 254.488281 130.886719 255.578125 131.980469 256.640625 C 133.070312 257.699219 134.195312 258.726562 135.347656 259.722656 C 136.5 260.71875 137.679688 261.679688 138.886719 262.605469 C 140.09375 263.535156 141.328125 264.425781 142.585938 265.28125 C 143.84375 266.140625 145.128906 266.960938 146.433594 267.742188 C 147.738281 268.527344 149.066406 269.273438 150.414062 269.980469 C 151.761719 270.6875 153.128906 271.355469 154.515625 271.984375 C 155.902344 272.613281 157.304688 273.203125 158.726562 273.75 C 160.144531 274.296875 161.578125 274.804688 163.027344 275.273438 C 164.476562 275.738281 165.9375 276.164062 167.414062 276.542969 C 168.886719 276.925781 170.367188 277.265625 171.863281 277.5625 C 173.355469 277.863281 174.855469 278.117188 176.363281 278.328125 C 177.867188 278.539062 179.382812 278.707031 180.898438 278.832031 C 182.414062 278.953125 183.933594 279.035156 185.457031 279.074219 C 186.976562 279.109375 188.5 279.105469 190.019531 279.054688 C 191.542969 279.003906 193.058594 278.910156 194.574219 278.773438 C 196.089844 278.636719 197.601562 278.457031 199.109375 278.234375 C 200.613281 278.011719 202.109375 277.742188 203.601562 277.433594 C 205.089844 277.125 206.570312 276.773438 208.042969 276.378906 C 209.511719 275.984375 210.96875 275.546875 212.414062 275.070312 C 213.859375 274.589844 215.289062 274.070312 216.707031 273.511719 C 218.121094 272.953125 219.519531 272.351562 220.902344 271.710938 C 222.28125 271.070312 223.644531 270.390625 224.984375 269.671875 C 226.328125 268.957031 227.648438 268.199219 228.949219 267.40625 C 230.246094 266.609375 231.523438 265.78125 232.773438 264.914062 C 234.027344 264.046875 235.25 263.144531 236.449219 262.207031 C 237.652344 261.269531 238.824219 260.296875 239.96875 259.292969 C 241.113281 258.289062 242.226562 257.25 243.3125 256.183594 C 244.394531 255.113281 245.449219 254.015625 246.472656 252.886719 C 247.492188 251.757812 248.484375 250.597656 249.4375 249.414062 C 250.394531 248.226562 251.316406 247.015625 252.203125 245.777344 C 253.089844 244.535156 253.941406 243.273438 254.753906 241.988281 C 255.566406 240.699219 256.34375 239.390625 257.085938 238.058594 C 257.824219 236.726562 258.523438 235.371094 259.1875 234 C 259.847656 232.628906 260.46875 231.238281 261.054688 229.832031 C 261.636719 228.421875 262.175781 227 262.679688 225.558594 C 263.179688 224.121094 263.636719 222.667969 264.054688 221.203125 C 264.472656 219.738281 264.851562 218.261719 265.183594 216.777344 C 265.515625 215.289062 265.808594 213.792969 266.054688 212.289062 C 266.304688 210.785156 266.507812 209.277344 266.667969 207.761719 C 266.832031 206.246094 266.949219 204.726562 267.023438 203.207031 C 267.097656 201.683594 267.128906 200.160156 267.117188 198.636719 C 267.105469 197.113281 267.050781 195.589844 266.949219 194.070312 C 266.851562 192.550781 266.707031 191.035156 266.519531 189.519531 C 266.335938 188.007812 266.105469 186.503906 265.832031 185.003906 C 265.558594 183.503906 265.246094 182.015625 264.886719 180.53125 C 264.53125 179.050781 264.128906 177.582031 263.6875 176.125 C 263.246094 174.664062 262.761719 173.21875 262.238281 171.789062 C 261.714844 170.359375 261.148438 168.945312 260.542969 167.546875 C 259.9375 166.148438 259.292969 164.769531 258.609375 163.40625 C 257.925781 162.046875 257.203125 160.707031 256.441406 159.386719 C 255.679688 158.066406 254.882812 156.769531 254.046875 155.496094 C 253.210938 154.222656 252.339844 152.972656 251.433594 151.75 C 250.527344 150.523438 249.585938 149.328125 248.613281 148.15625 C 247.636719 146.988281 246.628906 145.847656 245.589844 144.734375 C 244.546875 143.621094 243.476562 142.539062 242.375 141.488281 C 241.273438 140.4375 240.140625 139.421875 238.980469 138.433594 C 237.820312 137.449219 236.632812 136.496094 235.417969 135.578125 C 234.199219 134.660156 232.960938 133.78125 231.695312 132.933594 C 230.429688 132.085938 229.140625 131.277344 227.828125 130.503906 C 226.515625 129.730469 225.183594 128.996094 223.832031 128.300781 C 222.476562 127.605469 221.105469 126.949219 219.710938 126.328125 C 218.320312 125.710938 216.914062 125.136719 215.488281 124.597656 C 214.066406 124.0625 212.625 123.566406 211.171875 123.113281 C 209.71875 122.65625 208.253906 122.246094 206.777344 121.875 C 205.304688 121.503906 203.816406 121.175781 202.320312 120.890625 C 200.828125 120.605469 199.324219 120.363281 197.816406 120.164062 C 196.304688 119.96875 194.792969 119.8125 193.273438 119.699219 C 191.757812 119.585938 190.238281 119.519531 188.714844 119.492188 C 187.195312 119.46875 185.671875 119.488281 184.152344 119.550781 C 182.632812 119.613281 181.113281 119.71875 179.597656 119.867188 C 178.085938 120.015625 176.574219 120.210938 175.070312 120.445312 C 173.566406 120.679688 172.070312 120.960938 170.585938 121.28125 C 169.097656 121.601562 167.617188 121.96875 166.152344 122.375 C 164.683594 122.78125 163.230469 123.226562 161.789062 123.71875 C 160.347656 124.207031 158.921875 124.738281 157.511719 125.308594 C 156.101562 125.882812 154.707031 126.492188 153.332031 127.144531 C 151.957031 127.796875 150.597656 128.488281 149.261719 129.214844 C 147.925781 129.945312 146.613281 130.710938 145.320312 131.515625 C 144.027344 132.320312 142.757812 133.164062 141.515625 134.039062 C 140.269531 134.917969 139.050781 135.832031 137.859375 136.777344 C 136.667969 137.726562 135.503906 138.707031 134.367188 139.71875 C 133.230469 140.734375 132.125 141.78125 131.046875 142.855469 C 129.199219 144.703125 127.445312 146.636719 125.789062 148.65625 C 124.128906 150.675781 122.574219 152.769531 121.121094 154.945312 C 119.671875 157.117188 118.328125 159.355469 117.097656 161.660156 C 115.863281 163.964844 114.75 166.328125 113.75 168.742188 C 112.75 171.15625 111.871094 173.617188 111.117188 176.117188 C 110.359375 178.621094 109.726562 181.152344 109.21875 183.71875 C 108.710938 186.28125 108.328125 188.867188 108.078125 191.46875 C 107.824219 194.070312 107.699219 196.675781 107.703125 199.292969 Z M 243.664062 234.558594 C 245.253906 232.015625 246.664062 229.378906 247.898438 226.644531 C 249.132812 223.910156 250.175781 221.105469 251.027344 218.230469 C 251.882812 215.355469 252.539062 212.433594 253 209.46875 C 253.457031 206.503906 253.714844 203.523438 253.769531 200.523438 C 253.824219 197.523438 253.679688 194.535156 253.332031 191.554688 C 252.980469 188.578125 252.433594 185.632812 251.6875 182.730469 C 250.941406 179.824219 250 176.984375 248.871094 174.203125 C 247.738281 171.425781 246.425781 168.738281 244.929688 166.136719 C 242.011719 161.078125 238.492188 156.484375 234.371094 152.351562 C 230.25 148.21875 225.664062 144.6875 220.617188 141.757812 C 220.359375 141.609375 220.082031 141.515625 219.789062 141.476562 C 219.492188 141.433594 219.203125 141.453125 218.914062 141.53125 C 218.628906 141.605469 218.367188 141.734375 218.128906 141.917969 C 217.894531 142.097656 217.699219 142.316406 217.550781 142.574219 C 217.402344 142.832031 217.308594 143.109375 217.269531 143.402344 C 217.230469 143.699219 217.246094 143.988281 217.324219 144.277344 C 217.402344 144.566406 217.53125 144.828125 217.710938 145.0625 C 217.890625 145.300781 218.109375 145.492188 218.367188 145.644531 C 219.847656 146.5 221.289062 147.421875 222.695312 148.398438 C 224.101562 149.378906 225.460938 150.414062 226.78125 151.503906 C 228.101562 152.59375 229.375 153.738281 230.597656 154.9375 C 231.824219 156.132812 232.996094 157.378906 234.117188 158.671875 C 235.238281 159.96875 236.304688 161.304688 237.316406 162.6875 C 238.328125 164.070312 239.277344 165.492188 240.171875 166.957031 C 241.066406 168.417969 241.894531 169.914062 242.664062 171.445312 C 243.433594 172.972656 244.140625 174.535156 244.78125 176.125 C 245.421875 177.710938 245.996094 179.324219 246.5 180.960938 C 247.007812 182.597656 247.445312 184.253906 247.816406 185.925781 C 248.1875 187.597656 248.488281 189.285156 248.71875 190.980469 C 248.949219 192.679688 249.109375 194.382812 249.199219 196.097656 C 249.289062 197.808594 249.308594 199.519531 249.253906 201.230469 C 249.203125 202.945312 249.078125 204.652344 248.886719 206.355469 C 248.695312 208.058594 248.429688 209.75 248.097656 211.429688 C 247.765625 213.109375 247.363281 214.773438 246.890625 216.421875 C 245.292969 222.003906 242.953125 227.25 239.871094 232.167969 C 239.710938 232.417969 239.605469 232.691406 239.558594 232.984375 C 239.507812 233.28125 239.515625 233.570312 239.582031 233.863281 C 239.648438 234.152344 239.765625 234.417969 239.9375 234.664062 C 240.109375 234.90625 240.320312 235.105469 240.574219 235.265625 C 240.824219 235.421875 241.097656 235.527344 241.390625 235.578125 C 241.683594 235.628906 241.976562 235.621094 242.265625 235.554688 C 242.554688 235.488281 242.824219 235.367188 243.066406 235.195312 C 243.308594 235.023438 243.507812 234.8125 243.667969 234.558594 Z M 231.980469 248.519531 L 232.785156 247.777344 C 233 247.578125 233.164062 247.339844 233.285156 247.070312 C 233.40625 246.800781 233.472656 246.519531 233.480469 246.226562 C 233.492188 245.929688 233.445312 245.644531 233.34375 245.371094 C 233.242188 245.09375 233.089844 244.847656 232.890625 244.628906 C 232.691406 244.414062 232.457031 244.242188 232.191406 244.117188 C 231.925781 243.992188 231.644531 243.921875 231.351562 243.90625 C 231.058594 243.890625 230.769531 243.933594 230.492188 244.03125 C 230.214844 244.128906 229.96875 244.277344 229.746094 244.472656 L 228.941406 245.214844 C 228.71875 245.414062 228.539062 245.648438 228.410156 245.921875 C 228.28125 246.191406 228.207031 246.480469 228.191406 246.78125 C 228.179688 247.082031 228.222656 247.371094 228.324219 247.65625 C 228.425781 247.9375 228.578125 248.191406 228.78125 248.414062 C 228.984375 248.632812 229.226562 248.808594 229.496094 248.933594 C 229.769531 249.058594 230.058594 249.125 230.359375 249.136719 C 230.660156 249.148438 230.949219 249.097656 231.230469 248.992188 C 231.511719 248.882812 231.761719 248.726562 231.980469 248.519531 Z M 160.050781 259.832031 L 161.425781 260.441406 C 161.699219 260.558594 161.984375 260.621094 162.28125 260.625 C 162.578125 260.632812 162.863281 260.582031 163.140625 260.472656 C 163.417969 260.363281 163.664062 260.207031 163.878906 260 C 164.089844 259.792969 164.257812 259.554688 164.375 259.28125 C 164.496094 259.007812 164.558594 258.722656 164.5625 258.425781 C 164.570312 258.128906 164.515625 257.839844 164.410156 257.5625 C 164.300781 257.285156 164.140625 257.039062 163.9375 256.828125 C 163.730469 256.613281 163.492188 256.445312 163.21875 256.328125 L 161.875 255.734375 C 161.601562 255.605469 161.316406 255.535156 161.015625 255.519531 C 160.714844 255.507812 160.421875 255.550781 160.136719 255.65625 C 159.855469 255.761719 159.601562 255.917969 159.382812 256.125 C 159.164062 256.332031 158.992188 256.570312 158.867188 256.847656 C 158.746094 257.125 158.679688 257.414062 158.675781 257.714844 C 158.667969 258.015625 158.71875 258.308594 158.832031 258.589844 C 158.941406 258.871094 159.105469 259.117188 159.316406 259.332031 C 159.527344 259.550781 159.773438 259.714844 160.050781 259.832031 Z M 122.082031 210.972656 L 122.386719 212.585938 C 122.449219 212.871094 122.5625 213.136719 122.730469 213.378906 C 122.894531 213.621094 123.101562 213.824219 123.347656 213.984375 C 123.589844 214.144531 123.859375 214.253906 124.144531 214.3125 C 124.433594 214.367188 124.722656 214.367188 125.011719 214.3125 C 125.300781 214.257812 125.566406 214.148438 125.8125 213.988281 C 126.058594 213.824219 126.261719 213.625 126.429688 213.382812 C 126.597656 213.140625 126.710938 212.875 126.773438 212.589844 C 126.835938 212.300781 126.84375 212.011719 126.792969 211.722656 L 126.492188 210.164062 C 126.433594 209.875 126.324219 209.609375 126.160156 209.363281 C 125.996094 209.117188 125.792969 208.914062 125.550781 208.75 C 125.308594 208.582031 125.042969 208.472656 124.753906 208.410156 C 124.46875 208.351562 124.179688 208.347656 123.890625 208.398438 C 123.601562 208.453125 123.332031 208.558594 123.085938 208.71875 C 122.835938 208.875 122.628906 209.074219 122.460938 209.316406 C 122.292969 209.558594 122.175781 209.820312 122.109375 210.109375 C 122.042969 210.394531 122.035156 210.683594 122.082031 210.972656 Z M 127.839844 228.582031 C 129.914062 232.796875 132.40625 236.746094 135.3125 240.433594 C 138.222656 244.121094 141.480469 247.46875 145.089844 250.46875 C 145.320312 250.65625 145.578125 250.796875 145.863281 250.882812 C 146.148438 250.96875 146.4375 250.996094 146.734375 250.96875 C 147.03125 250.941406 147.308594 250.855469 147.570312 250.714844 C 147.835938 250.574219 148.058594 250.390625 148.25 250.160156 C 148.4375 249.929688 148.578125 249.671875 148.664062 249.390625 C 148.75 249.105469 148.78125 248.8125 148.753906 248.515625 C 148.726562 248.222656 148.640625 247.941406 148.503906 247.675781 C 148.363281 247.414062 148.179688 247.1875 147.949219 246.996094 C 144.578125 244.203125 141.539062 241.085938 138.824219 237.644531 C 136.113281 234.203125 133.792969 230.519531 131.859375 226.585938 C 131.734375 226.308594 131.558594 226.066406 131.335938 225.863281 C 131.113281 225.65625 130.859375 225.503906 130.574219 225.398438 C 130.285156 225.296875 129.992188 225.253906 129.6875 225.273438 C 129.386719 225.289062 129.097656 225.367188 128.824219 225.5 C 128.554688 225.632812 128.320312 225.816406 128.121094 226.046875 C 127.921875 226.277344 127.777344 226.535156 127.683594 226.824219 C 127.589844 227.113281 127.558594 227.410156 127.582031 227.714844 C 127.609375 228.015625 127.695312 228.300781 127.839844 228.570312 Z M 75.296875 143.515625 C 74.992188 143.523438 74.699219 143.472656 74.417969 143.363281 C 74.136719 143.253906 73.886719 143.089844 73.667969 142.878906 C 73.449219 142.667969 73.28125 142.421875 73.164062 142.140625 C 73.046875 141.863281 72.988281 141.570312 72.988281 141.265625 C 72.988281 140.960938 73.046875 140.671875 73.164062 140.390625 C 73.28125 140.109375 73.449219 139.863281 73.667969 139.652344 C 73.886719 139.441406 74.136719 139.277344 74.417969 139.167969 C 74.699219 139.058594 74.992188 139.007812 75.296875 139.015625 L 80.523438 139.015625 C 80.828125 139.007812 81.121094 139.058594 81.402344 139.167969 C 81.683594 139.277344 81.933594 139.441406 82.152344 139.652344 C 82.371094 139.863281 82.539062 140.109375 82.65625 140.390625 C 82.773438 140.671875 82.832031 140.960938 82.832031 141.265625 C 82.832031 141.570312 82.773438 141.863281 82.65625 142.140625 C 82.539062 142.421875 82.371094 142.667969 82.152344 142.878906 C 81.933594 143.089844 81.683594 143.253906 81.402344 143.363281 C 81.121094 143.472656 80.828125 143.523438 80.523438 143.515625 Z M 150.292969 4.652344 L 150.292969 36.949219 L 224.550781 36.949219 L 224.550781 4.652344 Z M 229.050781 4.652344 L 251.554688 4.652344 L 251.554688 66.304688 L 123.28125 66.304688 L 123.28125 4.652344 L 145.789062 4.652344 L 145.789062 39.203125 C 145.789062 39.503906 145.847656 39.789062 145.960938 40.066406 C 146.074219 40.339844 146.238281 40.585938 146.449219 40.796875 C 146.660156 41.007812 146.902344 41.171875 147.179688 41.285156 C 147.453125 41.398438 147.742188 41.457031 148.039062 41.457031 L 226.792969 41.457031 C 227.089844 41.457031 227.375 41.398438 227.652344 41.285156 C 227.925781 41.171875 228.171875 41.007812 228.382812 40.796875 C 228.59375 40.585938 228.753906 40.34375 228.867188 40.066406 C 228.984375 39.789062 229.039062 39.503906 229.039062 39.203125 Z M 202.53125 134.597656 L 201.871094 134.453125 C 201.574219 134.378906 201.28125 134.363281 200.980469 134.410156 C 200.679688 134.453125 200.402344 134.558594 200.144531 134.714844 C 199.886719 134.875 199.671875 135.078125 199.496094 135.324219 C 199.320312 135.570312 199.195312 135.839844 199.132812 136.136719 C 199.066406 136.433594 199.058594 136.730469 199.113281 137.027344 C 199.164062 137.324219 199.273438 137.601562 199.441406 137.855469 C 199.605469 138.109375 199.8125 138.320312 200.066406 138.488281 C 200.316406 138.660156 200.589844 138.773438 200.886719 138.832031 L 201.546875 138.976562 C 201.839844 139.054688 202.136719 139.066406 202.4375 139.019531 C 202.734375 138.976562 203.011719 138.875 203.269531 138.714844 C 203.53125 138.554688 203.746094 138.355469 203.921875 138.105469 C 204.097656 137.859375 204.21875 137.589844 204.285156 137.292969 C 204.351562 137 204.359375 136.703125 204.304688 136.402344 C 204.25 136.105469 204.140625 135.828125 203.976562 135.574219 C 203.808594 135.320312 203.601562 135.109375 203.351562 134.941406 C 203.101562 134.769531 202.828125 134.65625 202.53125 134.597656 Z M 88.976562 66.320312 L 88.976562 52.125 L 36.890625 52.125 L 36.890625 66.320312 Z M 32.402344 66.320312 L 2.164062 66.320312 C 1.867188 66.320312 1.578125 66.375 1.304688 66.492188 C 1.03125 66.605469 0.785156 66.765625 0.574219 66.980469 C 0.363281 67.191406 0.203125 67.433594 0.0898438 67.707031 C -0.0273438 67.984375 -0.0820312 68.273438 -0.0820312 68.570312 L -0.0820312 155.367188 C -0.0742188 155.660156 -0.0117188 155.941406 0.105469 156.210938 C 0.222656 156.480469 0.386719 156.714844 0.597656 156.921875 C 0.808594 157.125 1.046875 157.28125 1.320312 157.394531 C 1.589844 157.503906 1.871094 157.558594 2.164062 157.558594 C 2.457031 157.558594 2.742188 157.503906 3.011719 157.394531 C 3.285156 157.28125 3.523438 157.125 3.734375 156.921875 C 3.945312 156.714844 4.109375 156.480469 4.226562 156.210938 C 4.34375 155.941406 4.40625 155.660156 4.414062 155.367188 L 4.414062 143.523438 L 55.871094 143.523438 C 56.175781 143.53125 56.46875 143.480469 56.75 143.371094 C 57.035156 143.257812 57.285156 143.097656 57.5 142.886719 C 57.71875 142.675781 57.886719 142.429688 58.003906 142.148438 C 58.121094 141.867188 58.179688 141.578125 58.179688 141.273438 C 58.179688 140.96875 58.121094 140.675781 58.003906 140.398438 C 57.886719 140.117188 57.71875 139.871094 57.5 139.660156 C 57.285156 139.445312 57.035156 139.285156 56.75 139.175781 C 56.46875 139.066406 56.175781 139.011719 55.871094 139.019531 L 4.414062 139.019531 L 4.414062 70.808594 L 370.421875 70.808594 L 370.421875 139.015625 L 297.390625 139.015625 C 297.097656 139.023438 296.816406 139.085938 296.550781 139.203125 C 296.28125 139.320312 296.042969 139.484375 295.839844 139.695312 C 295.636719 139.90625 295.480469 140.148438 295.367188 140.417969 C 295.257812 140.691406 295.203125 140.972656 295.203125 141.265625 C 295.203125 141.558594 295.257812 141.839844 295.367188 142.113281 C 295.480469 142.386719 295.636719 142.625 295.839844 142.835938 C 296.042969 143.046875 296.28125 143.210938 296.550781 143.328125 C 296.816406 143.445312 297.097656 143.507812 297.390625 143.515625 L 370.417969 143.515625 L 370.417969 155.359375 C 370.417969 155.660156 370.476562 155.945312 370.589844 156.222656 C 370.703125 156.496094 370.863281 156.742188 371.074219 156.953125 C 371.285156 157.164062 371.53125 157.324219 371.804688 157.441406 C 372.082031 157.554688 372.367188 157.609375 372.664062 157.609375 C 372.964844 157.609375 373.25 157.554688 373.523438 157.441406 C 373.800781 157.324219 374.042969 157.164062 374.253906 156.953125 C 374.464844 156.742188 374.628906 156.496094 374.742188 156.222656 C 374.855469 155.945312 374.914062 155.660156 374.914062 155.359375 L 374.914062 68.5625 C 374.914062 68.265625 374.855469 67.976562 374.742188 67.703125 C 374.628906 67.425781 374.464844 67.183594 374.253906 66.972656 C 374.042969 66.761719 373.800781 66.597656 373.523438 66.484375 C 373.25 66.371094 372.964844 66.3125 372.664062 66.3125 L 256.042969 66.3125 L 256.042969 2.402344 C 256.042969 2.101562 255.988281 1.816406 255.871094 1.539062 C 255.757812 1.265625 255.597656 1.019531 255.386719 0.808594 C 255.175781 0.597656 254.933594 0.433594 254.65625 0.320312 C 254.382812 0.207031 254.09375 0.148438 253.796875 0.148438 L 121.035156 0.148438 C 120.738281 0.148438 120.453125 0.207031 120.175781 0.320312 C 119.902344 0.433594 119.660156 0.597656 119.449219 0.808594 C 119.238281 1.019531 119.074219 1.265625 118.960938 1.539062 C 118.847656 1.816406 118.789062 2.101562 118.789062 2.402344 L 118.789062 66.304688 L 93.460938 66.304688 L 93.460938 49.859375 C 93.460938 49.5625 93.402344 49.273438 93.289062 49 C 93.175781 48.722656 93.011719 48.480469 92.800781 48.269531 C 92.589844 48.058594 92.347656 47.894531 92.074219 47.78125 C 91.796875 47.664062 91.511719 47.609375 91.210938 47.609375 L 34.640625 47.609375 C 34.34375 47.609375 34.054688 47.664062 33.78125 47.78125 C 33.503906 47.894531 33.261719 48.058594 33.050781 48.269531 C 32.839844 48.480469 32.679688 48.722656 32.5625 49 C 32.449219 49.273438 32.394531 49.5625 32.394531 49.859375 Z M 88.140625 199.308594 C 88.140625 201.207031 88.195312 203.101562 88.304688 204.996094 C 88.410156 206.894531 88.574219 208.78125 88.789062 210.667969 C 89.007812 212.554688 89.277344 214.433594 89.601562 216.300781 C 89.925781 218.171875 90.304688 220.03125 90.734375 221.878906 C 91.164062 223.730469 91.648438 225.5625 92.183594 227.382812 C 92.71875 229.203125 93.304688 231.007812 93.945312 232.796875 C 94.582031 234.582031 95.269531 236.351562 96.011719 238.097656 C 96.75 239.847656 97.539062 241.570312 98.378906 243.273438 C 99.21875 244.976562 100.101562 246.652344 101.039062 248.304688 C 101.972656 249.957031 102.953125 251.578125 103.980469 253.175781 C 105.007812 254.769531 106.078125 256.332031 107.195312 257.867188 C 108.3125 259.402344 109.472656 260.902344 110.675781 262.367188 C 111.878906 263.835938 113.121094 265.269531 114.40625 266.664062 C 115.691406 268.058594 117.015625 269.417969 118.375 270.738281 C 119.738281 272.058594 121.136719 273.335938 122.574219 274.578125 C 124.007812 275.816406 125.476562 277.015625 126.980469 278.171875 C 128.484375 279.324219 130.019531 280.4375 131.589844 281.503906 C 133.15625 282.570312 134.753906 283.59375 136.378906 284.570312 C 138.003906 285.546875 139.65625 286.472656 141.335938 287.355469 C 143.015625 288.234375 144.71875 289.066406 146.445312 289.851562 C 148.171875 290.632812 149.921875 291.367188 151.6875 292.050781 C 153.457031 292.734375 155.246094 293.367188 157.050781 293.945312 C 158.855469 294.527344 160.675781 295.054688 162.507812 295.53125 C 164.34375 296.007812 166.191406 296.429688 168.050781 296.800781 C 169.910156 297.171875 171.777344 297.488281 173.65625 297.753906 C 175.535156 298.015625 177.417969 298.222656 179.304688 298.378906 C 181.195312 298.535156 183.085938 298.636719 184.984375 298.683594 C 186.878906 298.730469 188.773438 298.722656 190.667969 298.660156 C 192.5625 298.597656 194.453125 298.480469 196.34375 298.308594 C 198.230469 298.140625 200.113281 297.914062 201.988281 297.636719 C 203.863281 297.359375 205.726562 297.027344 207.585938 296.640625 C 209.441406 296.253906 211.285156 295.816406 213.113281 295.324219 C 214.945312 294.835938 216.761719 294.289062 218.5625 293.695312 C 220.363281 293.101562 222.144531 292.453125 223.90625 291.757812 C 225.667969 291.058594 227.410156 290.3125 229.132812 289.515625 C 230.851562 288.714844 232.546875 287.871094 234.21875 286.976562 C 235.890625 286.082031 237.535156 285.140625 239.15625 284.148438 C 240.773438 283.160156 242.359375 282.125 243.921875 281.046875 C 245.480469 279.964844 247.003906 278.84375 248.5 277.675781 C 249.996094 276.507812 251.453125 275.296875 252.878906 274.046875 C 254.304688 272.792969 255.695312 271.503906 257.042969 270.171875 C 258.394531 268.839844 259.707031 267.472656 260.980469 266.066406 C 262.253906 264.660156 263.488281 263.21875 264.675781 261.742188 C 265.867188 260.261719 267.015625 258.753906 268.121094 257.210938 C 269.222656 255.667969 270.28125 254.09375 271.296875 252.492188 C 272.3125 250.886719 273.277344 249.257812 274.199219 247.597656 C 275.121094 245.9375 275.992188 244.253906 276.816406 242.542969 C 277.644531 240.835938 278.417969 239.105469 279.144531 237.351562 C 279.867188 235.597656 280.542969 233.824219 281.167969 232.03125 C 281.792969 230.238281 282.363281 228.429688 282.882812 226.605469 C 283.40625 224.78125 283.871094 222.941406 284.289062 221.089844 C 284.703125 219.238281 285.066406 217.375 285.375 215.503906 C 285.683594 213.628906 285.9375 211.75 286.140625 209.863281 C 286.339844 207.976562 286.488281 206.085938 286.582031 204.1875 C 286.675781 202.292969 286.714844 200.394531 286.699219 198.5 C 286.683594 196.601562 286.613281 194.703125 286.488281 192.808594 C 286.363281 190.917969 286.1875 189.027344 285.953125 187.144531 C 285.722656 185.257812 285.4375 183.382812 285.097656 181.515625 C 284.757812 179.648438 284.367188 177.792969 283.917969 175.949219 C 283.472656 174.101562 282.976562 172.273438 282.425781 170.457031 C 281.875 168.640625 281.273438 166.839844 280.621094 165.058594 C 279.96875 163.277344 279.265625 161.515625 278.511719 159.773438 C 277.757812 158.03125 276.953125 156.3125 276.101562 154.617188 C 275.25 152.921875 274.347656 151.253906 273.398438 149.609375 C 272.453125 147.964844 271.457031 146.351562 270.417969 144.765625 C 269.378906 143.175781 268.292969 141.621094 267.164062 140.097656 C 266.035156 138.574219 264.863281 137.082031 263.648438 135.625 C 262.433594 134.167969 261.179688 132.746094 259.882812 131.359375 C 258.585938 129.976562 257.253906 128.628906 255.878906 127.320312 C 254.507812 126.011719 253.097656 124.742188 251.652344 123.515625 C 250.207031 122.285156 248.726562 121.101562 247.210938 119.957031 C 245.699219 118.8125 244.15625 117.714844 242.578125 116.660156 C 241.003906 115.605469 239.398438 114.597656 237.761719 113.636719 C 236.128906 112.671875 234.46875 111.757812 232.78125 110.890625 C 231.097656 110.023438 229.386719 109.207031 227.652344 108.4375 C 225.921875 107.667969 224.167969 106.949219 222.394531 106.28125 C 220.617188 105.609375 218.828125 104.992188 217.015625 104.429688 C 215.207031 103.863281 213.382812 103.347656 211.542969 102.886719 C 209.707031 102.425781 207.855469 102.019531 205.992188 101.664062 C 204.128906 101.308594 202.257812 101.007812 200.378906 100.757812 C 198.5 100.511719 196.617188 100.316406 194.726562 100.179688 C 192.835938 100.039062 190.941406 99.953125 189.046875 99.921875 C 187.148438 99.890625 185.253906 99.914062 183.359375 99.992188 C 181.46875 100.070312 179.578125 100.199219 177.691406 100.386719 C 175.804688 100.574219 173.921875 100.8125 172.050781 101.105469 C 170.179688 101.402344 168.316406 101.746094 166.460938 102.148438 C 164.609375 102.550781 162.769531 103.003906 160.941406 103.507812 C 159.113281 104.015625 157.304688 104.574219 155.507812 105.183594 C 153.714844 105.792969 151.9375 106.453125 150.179688 107.167969 C 148.421875 107.878906 146.6875 108.640625 144.972656 109.453125 C 143.257812 110.261719 141.570312 111.125 139.90625 112.03125 C 138.242188 112.941406 136.605469 113.894531 134.996094 114.898438 C 133.382812 115.898438 131.804688 116.949219 130.253906 118.039062 C 128.703125 119.132812 127.1875 120.269531 125.703125 121.449219 C 124.21875 122.628906 122.765625 123.851562 121.351562 125.113281 C 119.9375 126.378906 118.558594 127.679688 117.21875 129.023438 C 114.917969 131.320312 112.734375 133.726562 110.667969 136.242188 C 108.601562 138.757812 106.664062 141.367188 104.855469 144.070312 C 103.046875 146.777344 101.378906 149.566406 99.84375 152.433594 C 98.308594 155.304688 96.917969 158.246094 95.675781 161.25 C 94.429688 164.257812 93.335938 167.320312 92.390625 170.4375 C 91.449219 173.550781 90.660156 176.707031 90.027344 179.898438 C 89.394531 183.09375 88.917969 186.308594 88.601562 189.546875 C 88.285156 192.789062 88.128906 196.035156 88.132812 199.292969 Z M 88.140625 199.308594" fill-rule="evenodd"/><g fill="#FFF"><g><g><path d="M 15.109375 -13.871094 L 15.109375 -10.554688 L 26.261719 -10.554688 C 25.265625 -5.996094 21.226562 -2.957031 16.109375 -2.957031 C 9.792969 -2.957031 5.476562 -7.476562 5.476562 -13.953125 C 5.476562 -20.386719 9.914062 -24.945312 16.109375 -24.945312 C 20.828125 -24.945312 24.824219 -22.265625 26.023438 -18.1875 L 29.660156 -18.1875 C 28.421875 -24.183594 22.746094 -28.382812 16.03125 -28.382812 C 7.875 -28.382812 1.917969 -22.265625 1.917969 -13.953125 C 1.917969 -5.636719 7.875 0.480469 16.109375 0.480469 C 24.183594 0.480469 29.941406 -5.4375 30.101562 -13.871094 Z M 15.109375 -13.871094" transform="translate(48.51 371.503)"/></g></g></g><g fill="#FFF"><g><g><path d="M 23.34375 0 L 27.144531 0 L 15.390625 -27.984375 L 12.113281 -27.984375 L 0.679688 0 L 4.398438 0 L 7.117188 -6.675781 L 20.585938 -6.675781 Z M 13.792969 -23.144531 L 19.269531 -9.914062 L 8.433594 -9.914062 Z M 13.792969 -23.144531" transform="translate(90.403 371.503)"/></g></g></g><g fill="#FFF"><g><g><path d="M 7.316406 -3.277344 L 7.316406 -27.984375 L 3.796875 -27.984375 L 3.796875 0 L 19.585938 0 L 19.585938 -3.277344 Z M 7.316406 -3.277344" transform="translate(128.259 371.503)"/></g></g></g><g fill="#FFF"><g><g><path d="M 7.316406 -3.277344 L 7.316406 -27.984375 L 3.796875 -27.984375 L 3.796875 0 L 19.585938 0 L 19.585938 -3.277344 Z M 7.316406 -3.277344" transform="translate(158.72 371.503)"/></g></g></g><g fill="#FFF"><g><g><path d="M 7.316406 -3.359375 L 7.316406 -12.753906 L 18.589844 -12.753906 L 18.589844 -15.988281 L 7.316406 -15.988281 L 7.316406 -24.625 L 19.628906 -24.625 L 19.628906 -27.984375 L 3.796875 -27.984375 L 3.796875 0 L 20.066406 0 L 20.066406 -3.359375 Z M 7.316406 -3.359375" transform="translate(189.18 371.503)"/></g></g></g><g fill="#FFF"><g><g><path d="M 20.109375 0 L 24.066406 0 L 17.347656 -11.351562 C 21.027344 -12.390625 23.546875 -15.46875 23.546875 -19.429688 C 23.546875 -24.382812 19.667969 -27.984375 14.429688 -27.984375 L 3.796875 -27.984375 L 3.796875 0 L 7.316406 0 L 7.316406 -10.914062 L 13.671875 -10.914062 Z M 7.316406 -24.625 L 14.230469 -24.625 C 17.667969 -24.625 19.949219 -22.425781 19.949219 -19.429688 C 19.949219 -16.429688 17.667969 -14.269531 14.230469 -14.269531 L 7.316406 -14.269531 Z M 7.316406 -24.625" transform="translate(221.28 371.503)"/></g></g></g><g fill="#FFF"><g><g><path d="M 3.796875 0 L 7.316406 0 L 7.316406 -27.984375 L 3.796875 -27.984375 Z M 3.796875 0" transform="translate(257.017 371.503)"/></g></g></g><g fill="#FFF"><g><g><path d="M 23.34375 0 L 27.144531 0 L 15.390625 -27.984375 L 12.113281 -27.984375 L 0.679688 0 L 4.398438 0 L 7.117188 -6.675781 L 20.585938 -6.675781 Z M 13.792969 -23.144531 L 19.269531 -9.914062 L 8.433594 -9.914062 Z M 13.792969 -23.144531" transform="translate(278.164 371.503)"/></g></g></g></svg>